{
  "source": "C:\\Users\\Peter\\Desktop\\stuff\\MIUN\\quantitative_research\\video_compression\\videos\\UVG\\Beauty_1920x1080_120fps_420_8bit_YUV.y4m",
  "output": "C:\\Users\\Peter\\Desktop\\stuff\\MIUN\\quantitative_research\\video_compression\\compressed_videos\\UVG\\av1\\1\\Beauty_1920x1080_120fps_420_8bit_YUV_av1.mkv",
  "codec": "av1",
  "ok": "[yuv4mpegpipe @ 000001c5b5015300] Stream #0: not enough frames to estimate rate; consider increasing probesize\nInput #0, yuv4mpegpipe, from 'C:\\Users\\Peter\\Desktop\\stuff\\MIUN\\quantitative_research\\video_compression\\videos\\UVG\\Beauty_1920x1080_120fps_420_8bit_YUV.y4m':\n  Duration: 00:00:05.00, start: 0.000000, bitrate: 2985989 kb/s\n  Stream #0:0: Video: rawvideo (I420 / 0x30323449), yuv420p(progressive), 1920x1080, 120 fps, 120 tbr, 120 tbn\n[out#0/matroska @ 000001c5b5019100] Codec AVOption b:a (set bitrate (in bits/s)) has not been used for any stream. The most likely reason is either wrong type (e.g. a video option with no video streams) or that it is a private option of some decoder which was not actually used for any stream.\nStream mapping:\n  Stream #0:0 -> #0:0 (rawvideo (native) -> av1 (libsvtav1))\nPress [q] to stop, [?] for help\nSvt[info]: -------------------------------------------\nSvt[info]: SVT [version]:\tSVT-AV1 Encoder Lib v3.1.0-19-g6ecfe8ec\nSvt[info]: SVT [build]  :\tGCC 15.2.0\t 64 bit\nSvt[info]: LIB Build date: Aug 17 2025 11:37:13\nSvt[info]: -------------------------------------------\n[libsvtav1 @ 000001c5b501c140] Specified chroma sample location center is unsupported on the AV1 bit stream level. Usage of a container that allows passing this information - such as Matroska - is recommended.\nSvt[info]: Level of Parallelism: 5\nSvt[info]: Number of PPCS 93\nSvt[info]: [asm level on system : up to avx2]\nSvt[info]: [asm level selected : up to avx2]\nSvt[info]: -------------------------------------------\nSvt[info]: SVT [config]: main profile\ttier (auto)\tlevel (auto)\nSvt[info]: SVT [config]: width / height / fps numerator / fps denominator \t\t: 1920 / 1080 / 120 / 1\nSvt[info]: SVT [config]: bit-depth / color format \t\t\t\t\t: 8 / YUV420\nSvt[info]: SVT [config]: preset / tune / pred struct \t\t\t\t\t: 4 / PSNR / random access\nSvt[info]: SVT [config]: gop size / mini-gop size / key-frame type \t\t\t: 641 / 16 / key frame\nSvt[info]: SVT [config]: BRC mode / target bitrate (kbps)\t\t\t\t: VBR / 1000 \nSvt[info]: SVT [config]: AQ mode / Variance Boost \t\t\t\t\t: 2 / 0\nSvt[info]: SVT [config]: sharpness / luminance-based QP bias \t\t\t\t: 0 / 0\nSvt[info]: SVT [config]: QP scale compress strength \t\t\t\t\t: 0\nSvt[info]: -------------------------------------------\nOutput #0, matroska, to 'C:\\Users\\Peter\\Desktop\\stuff\\MIUN\\quantitative_research\\video_compression\\compressed_videos\\UVG\\av1\\1\\Beauty_1920x1080_120fps_420_8bit_YUV_av1.mkv':\n  Metadata:\n    encoder         : Lavf62.3.100\n  Stream #0:0: Video: av1 (AV01 / 0x31305641), yuv420p(tv, progressive), 1920x1080, q=2-31, 1000 kb/s, 120 fps, 1k tbn\n    Metadata:\n      encoder         : Lavc62.11.100 libsvtav1\n    Side data:\n      cpb: bitrate max/min/avg: 0/0/1000000 buffer size: 1000000 vbv_delay: N/A\nframe=    0 fps=0.0 q=0.0 size=       0KiB time=N/A bitrate=N/A speed=N/A elapsed=0:00:00.51    \nframe=    0 fps=0.0 q=0.0 size=       0KiB time=N/A bitrate=N/A speed=N/A elapsed=0:00:01.16    \nframe=    0 fps=0.0 q=0.0 size=       0KiB time=N/A bitrate=N/A speed=N/A elapsed=0:00:01.66    \nframe=    0 fps=0.0 q=0.0 size=       0KiB time=N/A bitrate=N/A speed=N/A elapsed=0:00:02.18    \nframe=    0 fps=0.0 q=0.0 size=       0KiB time=N/A bitrate=N/A speed=N/A elapsed=0:00:02.70    \nframe=    0 fps=0.0 q=0.0 size=       0KiB time=N/A bitrate=N/A speed=N/A elapsed=0:00:03.22    \nframe=    0 fps=0.0 q=0.0 size=       0KiB time=N/A bitrate=N/A speed=N/A elapsed=0:00:03.77    \nframe=    0 fps=0.0 q=0.0 size=       0KiB time=N/A bitrate=N/A speed=N/A elapsed=0:00:04.29    \nframe=    0 fps=0.0 q=0.0 size=       0KiB time=N/A bitrate=N/A speed=N/A elapsed=0:00:04.88    \nframe=    0 fps=0.0 q=0.0 size=       0KiB time=N/A bitrate=N/A speed=N/A elapsed=0:00:05.80    \nframe=    0 fps=0.0 q=0.0 size=       0KiB time=N/A bitrate=N/A speed=N/A elapsed=0:00:06.32    \nframe=    0 fps=0.0 q=0.0 size=       0KiB time=N/A bitrate=N/A speed=N/A elapsed=0:00:06.85    \nframe=    0 fps=0.0 q=0.0 size=       0KiB time=N/A bitrate=N/A speed=N/A elapsed=0:00:07.35    \nframe=    1 fps=0.1 q=46.0 size=       1KiB time=00:00:00.00 bitrate=N/A speed=   0x elapsed=0:00:07.88    \nframe=    1 fps=0.1 q=46.0 size=       1KiB time=00:00:00.00 bitrate=N/A speed=   0x elapsed=0:00:08.39    \nframe=    4 fps=0.4 q=63.0 size=       1KiB time=00:00:00.02 bitrate= 179.2kbits/s speed=0.00281x elapsed=0:00:08.90    \nframe=    8 fps=0.8 q=60.0 size=       1KiB time=00:00:00.05 bitrate=  76.8kbits/s speed=0.00619x elapsed=0:00:09.42    \nframe=   11 fps=1.1 q=60.0 size=       1KiB time=00:00:00.08 bitrate=  53.8kbits/s speed=0.00838x elapsed=0:00:09.94    \nframe=   13 fps=1.2 q=59.0 size=       1KiB time=00:00:00.10 bitrate=  44.8kbits/s speed=0.00957x elapsed=0:00:10.45    \nframe=   16 fps=1.5 q=58.0 size=       1KiB time=00:00:00.12 bitrate=  35.8kbits/s speed=0.0114x elapsed=0:00:10.96    \nframe=   17 fps=1.5 q=52.0 size=       1KiB time=00:00:00.13 bitrate=  33.6kbits/s speed=0.0116x elapsed=0:00:11.48    \nframe=   20 fps=1.7 q=55.0 size=       1KiB time=00:00:00.15 bitrate=  28.3kbits/s speed=0.0132x elapsed=0:00:12.00    \nframe=   21 fps=1.7 q=59.0 size=       1KiB time=00:00:00.16 bitrate=  26.9kbits/s speed=0.0133x elapsed=0:00:12.51    \nframe=   22 fps=1.7 q=54.0 size=       1KiB time=00:00:00.17 bitrate=  25.6kbits/s speed=0.0134x elapsed=0:00:13.02    \nframe=   24 fps=1.8 q=54.0 size=       1KiB time=00:00:00.19 bitrate=  23.4kbits/s speed=0.0141x elapsed=0:00:13.55    \nframe=   25 fps=1.8 q=56.0 size=       1KiB time=00:00:00.20 bitrate=  22.4kbits/s speed=0.0142x elapsed=0:00:14.05    \nframe=   26 fps=1.8 q=53.0 size=       1KiB time=00:00:00.20 bitrate=  21.5kbits/s speed=0.0143x elapsed=0:00:14.58    \nframe=   26 fps=1.7 q=53.0 size=       1KiB time=00:00:00.20 bitrate=  21.5kbits/s speed=0.0138x elapsed=0:00:15.08    \nframe=   27 fps=1.7 q=57.0 size=       1KiB time=00:00:00.21 bitrate=  20.7kbits/s speed=0.0139x elapsed=0:00:15.60    \nframe=   28 fps=1.7 q=53.0 size=       1KiB time=00:00:00.22 bitrate=  19.9kbits/s speed=0.014x elapsed=0:00:16.12    \nframe=   30 fps=1.8 q=54.0 size=       1KiB time=00:00:00.24 bitrate=  18.5kbits/s speed=0.0145x elapsed=0:00:16.63    \nframe=   32 fps=1.9 q=56.0 size=       1KiB time=00:00:00.25 bitrate=  17.3kbits/s speed=0.0151x elapsed=0:00:17.15    \nframe=   33 fps=1.9 q=50.0 size=       1KiB time=00:00:00.26 bitrate=  16.8kbits/s speed=0.0151x elapsed=0:00:17.66    \nframe=   35 fps=1.9 q=55.0 size=       1KiB time=00:00:00.28 bitrate=  15.8kbits/s speed=0.0156x elapsed=0:00:18.18    \nframe=   35 fps=1.9 q=55.0 size=       1KiB time=00:00:00.28 bitrate=  15.8kbits/s speed=0.0151x elapsed=0:00:18.70    \nframe=   36 fps=1.9 q=51.0 size=       1KiB time=00:00:00.29 bitrate=  15.4kbits/s speed=0.0152x elapsed=0:00:19.21    \nframe=   38 fps=1.9 q=51.0 size=       1KiB time=00:00:00.30 bitrate=  14.5kbits/s speed=0.0156x elapsed=0:00:19.73    \nframe=   38 fps=1.9 q=51.0 size=       1KiB time=00:00:00.30 bitrate=  14.5kbits/s speed=0.0152x elapsed=0:00:20.25    \nframe=   39 fps=1.9 q=55.0 size=       1KiB time=00:00:00.31 bitrate=  14.1kbits/s speed=0.0153x elapsed=0:00:20.76    \nframe=   42 fps=2.0 q=51.0 size=       1KiB time=00:00:00.34 bitrate=  13.1kbits/s speed=0.0161x elapsed=0:00:21.28    \nframe=   43 fps=2.0 q=55.0 size=       1KiB time=00:00:00.35 bitrate=  12.8kbits/s speed=0.0161x elapsed=0:00:21.79    \nframe=   46 fps=2.1 q=52.0 size=       1KiB time=00:00:00.37 bitrate=  11.9kbits/s speed=0.0168x elapsed=0:00:22.30    \nframe=   48 fps=2.1 q=52.0 size=       1KiB time=00:00:00.39 bitrate=  11.4kbits/s speed=0.0172x elapsed=0:00:22.82    \nframe=   51 fps=2.2 q=57.0 size=       1KiB time=00:00:00.41 bitrate=  10.8kbits/s speed=0.0178x elapsed=0:00:23.35    \nframe=   52 fps=2.2 q=53.0 size=       1KiB time=00:00:00.42 bitrate=  10.5kbits/s speed=0.0178x elapsed=0:00:23.85    \nframe=   54 fps=2.2 q=53.0 size=       1KiB time=00:00:00.44 bitrate=  10.1kbits/s speed=0.0181x elapsed=0:00:24.38    \nframe=   55 fps=2.2 q=57.0 size=       1KiB time=00:00:00.45 bitrate=  10.0kbits/s speed=0.0181x elapsed=0:00:24.88    \nframe=   56 fps=2.2 q=54.0 size=       1KiB time=00:00:00.45 bitrate=   9.8kbits/s speed=0.018x elapsed=0:00:25.40    \nframe=   57 fps=2.2 q=50.0 size=       1KiB time=00:00:00.46 bitrate=   9.6kbits/s speed=0.018x elapsed=0:00:25.92    \nframe=   57 fps=2.2 q=50.0 size=       1KiB time=00:00:00.46 bitrate=   9.6kbits/s speed=0.0176x elapsed=0:00:26.44    \nframe=   60 fps=2.2 q=52.0 size=       1KiB time=00:00:00.49 bitrate=   9.1kbits/s speed=0.0182x elapsed=0:00:26.94    \nframe=   61 fps=2.2 q=57.0 size=       1KiB time=00:00:00.50 bitrate=   9.0kbits/s speed=0.0182x elapsed=0:00:27.47    \nframe=   63 fps=2.3 q=56.0 size=       1KiB time=00:00:00.51 bitrate=   8.7kbits/s speed=0.0185x elapsed=0:00:27.98    \nframe=   64 fps=2.2 q=52.0 size=       1KiB time=00:00:00.52 bitrate=   8.5kbits/s speed=0.0184x elapsed=0:00:28.49    \nframe=   66 fps=2.3 q=49.0 size=       1KiB time=00:00:00.54 bitrate=   8.3kbits/s speed=0.0187x elapsed=0:00:29.01    \nframe=   68 fps=2.3 q=49.0 size=       1KiB time=00:00:00.55 bitrate=   8.0kbits/s speed=0.0189x elapsed=0:00:29.53    \nframe=   69 fps=2.3 q=57.0 size=       1KiB time=00:00:00.56 bitrate=   7.9kbits/s speed=0.0189x elapsed=0:00:30.05    \nframe=   71 fps=2.3 q=53.0 size=       1KiB time=00:00:00.58 bitrate=   7.7kbits/s speed=0.0191x elapsed=0:00:30.56    \nframe=   71 fps=2.3 q=53.0 size=       1KiB time=00:00:00.58 bitrate=   7.7kbits/s speed=0.0188x elapsed=0:00:31.08    \nframe=   73 fps=2.3 q=49.0 size=       1KiB time=00:00:00.60 bitrate=   7.5kbits/s speed=0.019x elapsed=0:00:31.58    \nframe=   74 fps=2.3 q=49.0 size=       1KiB time=00:00:00.60 bitrate=   7.4kbits/s speed=0.0189x elapsed=0:00:32.11    \nframe=   76 fps=2.3 q=49.0 size=       1KiB time=00:00:00.62 bitrate=   7.2kbits/s speed=0.0192x elapsed=0:00:32.61    \nframe=   78 fps=2.4 q=52.0 size=       1KiB time=00:00:00.64 bitrate=   7.0kbits/s speed=0.0194x elapsed=0:00:33.13    \nframe=   80 fps=2.4 q=53.0 size=       1KiB time=00:00:00.65 bitrate=   6.8kbits/s speed=0.0196x elapsed=0:00:33.66    \nframe=   82 fps=2.4 q=50.0 size=       1KiB time=00:00:00.67 bitrate=   6.6kbits/s speed=0.0197x elapsed=0:00:34.17    \nframe=   84 fps=2.4 q=50.0 size=       1KiB time=00:00:00.69 bitrate=   6.5kbits/s speed=0.0199x elapsed=0:00:34.69    \nframe=   86 fps=2.4 q=52.0 size=       1KiB time=00:00:00.70 bitrate=   6.3kbits/s speed=0.0201x elapsed=0:00:35.20    \nframe=   87 fps=2.4 q=55.0 size=       1KiB time=00:00:00.71 bitrate=   6.3kbits/s speed=0.0201x elapsed=0:00:35.72    \nframe=   89 fps=2.5 q=49.0 size=       1KiB time=00:00:00.73 bitrate=   6.1kbits/s speed=0.0202x elapsed=0:00:36.23    \nframe=   90 fps=2.4 q=52.0 size=       1KiB time=00:00:00.74 bitrate=   6.0kbits/s speed=0.0202x elapsed=0:00:36.75    \nframe=   93 fps=2.5 q=57.0 size=       1KiB time=00:00:00.76 bitrate=   5.8kbits/s speed=0.0206x elapsed=0:00:37.26    \nframe=   96 fps=2.5 q=51.0 size=       1KiB time=00:00:00.79 bitrate=   5.7kbits/s speed=0.021x elapsed=0:00:37.78    \nframe=   97 fps=2.5 q=40.0 size=       1KiB time=00:00:00.80 bitrate=   5.6kbits/s speed=0.0209x elapsed=0:00:38.30    \nframe=   99 fps=2.6 q=55.0 size=       1KiB time=00:00:00.81 bitrate=   5.5kbits/s speed=0.021x elapsed=0:00:38.82    \nframe=  102 fps=2.6 q=52.0 size=       1KiB time=00:00:00.84 bitrate=   5.3kbits/s speed=0.0214x elapsed=0:00:39.34    \nframe=  103 fps=2.6 q=56.0 size=       1KiB time=00:00:00.85 bitrate=   5.3kbits/s speed=0.0213x elapsed=0:00:39.86    \nframe=  104 fps=2.6 q=53.0 size=       1KiB time=00:00:00.85 bitrate=   5.2kbits/s speed=0.0213x elapsed=0:00:40.36    \nframe=  105 fps=2.6 q=48.0 size=       1KiB time=00:00:00.86 bitrate=   5.2kbits/s speed=0.0212x elapsed=0:00:40.89    \nframe=  107 fps=2.6 q=56.0 size=       1KiB time=00:00:00.88 bitrate=   5.1kbits/s speed=0.0213x elapsed=0:00:41.40    \nframe=  109 fps=2.6 q=58.0 size=       1KiB time=00:00:00.90 bitrate=   5.0kbits/s speed=0.0215x elapsed=0:00:41.92    \nframe=  112 fps=2.6 q=52.0 size=       1KiB time=00:00:00.92 bitrate=   4.8kbits/s speed=0.0218x elapsed=0:00:42.44    \nframe=  114 fps=2.7 q=51.0 size=       1KiB time=00:00:00.94 bitrate=   4.8kbits/s speed=0.0219x elapsed=0:00:42.96    \nframe=  115 fps=2.6 q=55.0 size=       1KiB time=00:00:00.95 bitrate=   4.7kbits/s speed=0.0219x elapsed=0:00:43.46    \nframe=  116 fps=2.6 q=52.0 size=       1KiB time=00:00:00.95 bitrate=   4.7kbits/s speed=0.0218x elapsed=0:00:43.98    \nframe=  117 fps=2.6 q=57.0 size=       1KiB time=00:00:00.96 bitrate=   4.6kbits/s speed=0.0217x elapsed=0:00:44.50    \nframe=  118 fps=2.6 q=53.0 size=       1KiB time=00:00:00.97 bitrate=   4.6kbits/s speed=0.0217x elapsed=0:00:45.02    \nframe=  119 fps=2.6 q=56.0 size=       1KiB time=00:00:00.98 bitrate=   4.6kbits/s speed=0.0216x elapsed=0:00:45.54    \nframe=  120 fps=2.6 q=53.0 size=       1KiB time=00:00:00.99 bitrate=   4.5kbits/s speed=0.0215x elapsed=0:00:46.07    \nframe=  121 fps=2.6 q=47.0 size=       1KiB time=00:00:01.00 bitrate=   4.5kbits/s speed=0.0215x elapsed=0:00:46.57    \nframe=  123 fps=2.6 q=57.0 size=       1KiB time=00:00:01.01 bitrate=   4.4kbits/s speed=0.0216x elapsed=0:00:47.09    \nframe=  124 fps=2.6 q=53.0 size=       1KiB time=00:00:01.02 bitrate=   4.4kbits/s speed=0.0215x elapsed=0:00:47.61    \nframe=  125 fps=2.6 q=57.0 size=       1KiB time=00:00:01.03 bitrate=   4.3kbits/s speed=0.0215x elapsed=0:00:48.11    \nframe=  128 fps=2.6 q=52.0 size=       1KiB time=00:00:01.05 bitrate=   4.2kbits/s speed=0.0218x elapsed=0:00:48.64    \nframe=  130 fps=2.6 q=53.0 size=       1KiB time=00:00:01.07 bitrate=   4.2kbits/s speed=0.0219x elapsed=0:00:49.16    \nframe=  132 fps=2.7 q=51.0 size=       1KiB time=00:00:01.09 bitrate=   4.1kbits/s speed=0.022x elapsed=0:00:49.66    \nframe=  133 fps=2.6 q=58.0 size=       1KiB time=00:00:01.10 bitrate=   4.1kbits/s speed=0.0219x elapsed=0:00:50.19    \nframe=  134 fps=2.6 q=52.0 size=       1KiB time=00:00:01.10 bitrate=   4.0kbits/s speed=0.0219x elapsed=0:00:50.69    \nframe=  135 fps=2.6 q=56.0 size=       1KiB time=00:00:01.11 bitrate=   4.0kbits/s speed=0.0218x elapsed=0:00:51.21    \nframe=  138 fps=2.7 q=52.0 size=       1KiB time=00:00:01.14 bitrate=   3.9kbits/s speed=0.0221x elapsed=0:00:51.74    \nframe=  139 fps=2.7 q=56.0 size=       1KiB time=00:00:01.15 bitrate=   3.9kbits/s speed=0.022x elapsed=0:00:52.25    \nframe=  140 fps=2.7 q=52.0 size=       1KiB time=00:00:01.15 bitrate=   3.9kbits/s speed=0.022x elapsed=0:00:52.76    \nframe=  144 fps=2.7 q=52.0 size=       1KiB time=00:00:01.19 bitrate=   3.8kbits/s speed=0.0224x elapsed=0:00:53.28    \nframe=  146 fps=2.7 q=52.0 size=       1KiB time=00:00:01.20 bitrate=   3.7kbits/s speed=0.0225x elapsed=0:00:53.79    \nframe=  149 fps=2.7 q=58.0 size=       1KiB time=00:00:01.23 bitrate=   3.6kbits/s speed=0.0227x elapsed=0:00:54.30    \nframe=  150 fps=2.7 q=51.0 size=       1KiB time=00:00:01.24 bitrate=   3.6kbits/s speed=0.0226x elapsed=0:00:54.82    \nframe=  151 fps=2.7 q=55.0 size=       1KiB time=00:00:01.25 bitrate=   3.6kbits/s speed=0.0226x elapsed=0:00:55.34    \nframe=  153 fps=2.7 q=48.0 size=       1KiB time=00:00:01.26 bitrate=   3.5kbits/s speed=0.0227x elapsed=0:00:55.86    \nframe=  155 fps=2.7 q=54.0 size=       1KiB time=00:00:01.28 bitrate=   3.5kbits/s speed=0.0228x elapsed=0:00:56.39    \nframe=  157 fps=2.8 q=57.0 size=       1KiB time=00:00:01.30 bitrate=   3.4kbits/s speed=0.0228x elapsed=0:00:56.91    \nframe=  159 fps=2.8 q=53.0 size=       1KiB time=00:00:01.31 bitrate=   3.4kbits/s speed=0.0229x elapsed=0:00:57.43    \nframe=  160 fps=2.8 q=49.0 size=       1KiB time=00:00:01.32 bitrate=   3.4kbits/s speed=0.0229x elapsed=0:00:57.96    \nframe=  162 fps=2.8 q=49.0 size=       1KiB time=00:00:01.34 bitrate=   3.3kbits/s speed=0.0229x elapsed=0:00:58.48    \nframe=  163 fps=2.8 q=53.0 size=       1KiB time=00:00:01.35 bitrate=   3.3kbits/s speed=0.0229x elapsed=0:00:59.01    \nframe=  165 fps=2.8 q=56.0 size=       1KiB time=00:00:01.36 bitrate=   3.3kbits/s speed=0.023x elapsed=0:00:59.52    \nframe=  166 fps=2.8 q=51.0 size=       1KiB time=00:00:01.37 bitrate=   3.3kbits/s speed=0.0229x elapsed=0:01:00.04    \nframe=  167 fps=2.8 q=55.0 size=       1KiB time=00:00:01.38 bitrate=   3.2kbits/s speed=0.0228x elapsed=0:01:00.55    \nframe=  168 fps=2.8 q=52.0 size=       1KiB time=00:00:01.39 bitrate=   3.2kbits/s speed=0.0228x elapsed=0:01:01.07    \nframe=  171 fps=2.8 q=56.0 size=       1KiB time=00:00:01.41 bitrate=   3.2kbits/s speed=0.023x elapsed=0:01:01.60    \nframe=  173 fps=2.8 q=57.0 size=       1KiB time=00:00:01.43 bitrate=   3.1kbits/s speed=0.0231x elapsed=0:01:02.13    \nframe=  177 fps=2.8 q=41.0 size=       1KiB time=00:00:01.46 bitrate=   3.1kbits/s speed=0.0234x elapsed=0:01:02.65    \nframe=  180 fps=2.8 q=52.0 size=       1KiB time=00:00:01.49 bitrate=   3.0kbits/s speed=0.0236x elapsed=0:01:03.17    \nframe=  182 fps=2.9 q=52.0 size=       1KiB time=00:00:01.50 bitrate=   3.0kbits/s speed=0.0237x elapsed=0:01:03.68    \nframe=  183 fps=2.9 q=55.0 size=       1KiB time=00:00:01.51 bitrate=   3.0kbits/s speed=0.0236x elapsed=0:01:04.20    \nframe=  184 fps=2.8 q=52.0 size=       1KiB time=00:00:01.52 bitrate=   2.9kbits/s speed=0.0236x elapsed=0:01:04.75    \nframe=  185 fps=2.8 q=46.0 size=       1KiB time=00:00:01.53 bitrate=   2.9kbits/s speed=0.0235x elapsed=0:01:05.27    \nframe=  187 fps=2.8 q=56.0 size=       1KiB time=00:00:01.55 bitrate=   2.9kbits/s speed=0.0236x elapsed=0:01:05.79    \nframe=  189 fps=2.8 q=57.0 size=       1KiB time=00:00:01.56 bitrate=   2.9kbits/s speed=0.0236x elapsed=0:01:06.33    \nframe=  191 fps=2.9 q=55.0 size=       1KiB time=00:00:01.58 bitrate=   2.8kbits/s speed=0.0237x elapsed=0:01:06.89    \nframe=  193 fps=2.9 q=40.0 size=       1KiB time=00:00:01.60 bitrate=   2.8kbits/s speed=0.0237x elapsed=0:01:07.48    \nframe=  195 fps=2.9 q=55.0 size=       1KiB time=00:00:01.61 bitrate=   2.8kbits/s speed=0.0238x elapsed=0:01:08.00    \nframe=  199 fps=2.9 q=54.0 size=       1KiB time=00:00:01.64 bitrate=   2.7kbits/s speed=0.0239x elapsed=0:01:08.55    \nframe=  200 fps=2.9 q=51.0 size=       1KiB time=00:00:01.65 bitrate=   2.7kbits/s speed=0.024x elapsed=0:01:09.14    \nframe=  203 fps=2.9 q=55.0 size=       1KiB time=00:00:01.68 bitrate=   2.7kbits/s speed=0.0241x elapsed=0:01:09.80    \nframe=  207 fps=2.9 q=56.0 size=       1KiB time=00:00:01.70 bitrate=   2.6kbits/s speed=0.0242x elapsed=0:01:10.37    \nframe=  211 fps=3.0 q=57.0 size=       1KiB time=00:00:01.75 bitrate=   2.6kbits/s speed=0.0246x elapsed=0:01:11.00    \nframe=  213 fps=3.0 q=57.0 size=       1KiB time=00:00:01.76 bitrate=   2.5kbits/s speed=0.0247x elapsed=0:01:11.53    \nframe=  216 fps=3.0 q=54.0 size=       1KiB time=00:00:01.79 bitrate=   2.5kbits/s speed=0.0249x elapsed=0:01:12.05    \nframe=  218 fps=3.0 q=54.0 size=       1KiB time=00:00:01.80 bitrate=   2.5kbits/s speed=0.0249x elapsed=0:01:12.55    \nframe=  220 fps=3.0 q=54.0 size=       1KiB time=00:00:01.82 bitrate=   2.5kbits/s speed=0.025x elapsed=0:01:13.08    \nframe=  220 fps=3.0 q=54.0 size=       1KiB time=00:00:01.82 bitrate=   2.5kbits/s speed=0.0248x elapsed=0:01:13.58    \nframe=  225 fps=3.0 q=40.0 size=       1KiB time=00:00:01.86 bitrate=   2.4kbits/s speed=0.0252x elapsed=0:01:14.11    \nframe=  226 fps=3.0 q=53.0 size=       1KiB time=00:00:01.87 bitrate=   2.4kbits/s speed=0.0251x elapsed=0:01:14.62    \nframe=  229 fps=3.0 q=57.0 size=       1KiB time=00:00:01.90 bitrate=   2.4kbits/s speed=0.0253x elapsed=0:01:15.14    \nframe=  230 fps=3.0 q=53.0 size=       1KiB time=00:00:01.90 bitrate=   2.3kbits/s speed=0.0252x elapsed=0:01:15.65    \nframe=  232 fps=3.0 q=53.0 size=       1KiB time=00:00:01.92 bitrate=   2.3kbits/s speed=0.0253x elapsed=0:01:16.17    \nframe=  235 fps=3.1 q=57.0 size=       1KiB time=00:00:01.95 bitrate=   2.3kbits/s speed=0.0254x elapsed=0:01:16.69    \nframe=  238 fps=3.1 q=51.0 size=       1KiB time=00:00:01.97 bitrate=   2.3kbits/s speed=0.0256x elapsed=0:01:17.21    \nframe=  242 fps=3.1 q=51.0 size=       1KiB time=00:00:02.00 bitrate=   2.2kbits/s speed=0.0258x elapsed=0:01:17.73    \nframe=  244 fps=3.1 q=51.0 size=       1KiB time=00:00:02.02 bitrate=   2.2kbits/s speed=0.0259x elapsed=0:01:18.24    \nframe=  246 fps=3.1 q=51.0 size=       1KiB time=00:00:02.04 bitrate=   2.2kbits/s speed=0.0259x elapsed=0:01:18.76    \nframe=  248 fps=3.1 q=51.0 size=       1KiB time=00:00:02.05 bitrate=   2.2kbits/s speed=0.026x elapsed=0:01:19.28    \nframe=  250 fps=3.1 q=50.0 size=       1KiB time=00:00:02.07 bitrate=   2.2kbits/s speed=0.026x elapsed=0:01:19.79    \nframe=  252 fps=3.1 q=48.0 size=       1KiB time=00:00:02.09 bitrate=   2.1kbits/s speed=0.026x elapsed=0:01:20.32    \nframe=  256 fps=3.2 q=49.0 size=       1KiB time=00:00:02.12 bitrate=   2.1kbits/s speed=0.0263x elapsed=0:01:20.82    \nframe=  258 fps=3.2 q=48.0 size=       1KiB time=00:00:02.14 bitrate=   2.1kbits/s speed=0.0263x elapsed=0:01:21.35    \nframe=  259 fps=3.2 q=51.0 size=       1KiB time=00:00:02.15 bitrate=   2.1kbits/s speed=0.0263x elapsed=0:01:21.85    \nframe=  262 fps=3.2 q=48.0 size=       1KiB time=00:00:02.17 bitrate=   2.1kbits/s speed=0.0264x elapsed=0:01:22.37    \nframe=  263 fps=3.2 q=51.0 size=       1KiB time=00:00:02.18 bitrate=   2.1kbits/s speed=0.0263x elapsed=0:01:22.88    \nframe=  265 fps=3.2 q=47.0 size=       1KiB time=00:00:02.20 bitrate=   2.0kbits/s speed=0.0264x elapsed=0:01:23.40    \nframe=  266 fps=3.2 q=49.0 size=       1KiB time=00:00:02.20 bitrate=   2.0kbits/s speed=0.0263x elapsed=0:01:23.92    \nframe=  268 fps=3.2 q=49.0 size=       1KiB time=00:00:02.21 bitrate=   2.0kbits/s speed=0.0263x elapsed=0:01:24.44    \nframe=  270 fps=3.2 q=51.0 size=       1KiB time=00:00:02.24 bitrate=   2.0kbits/s speed=0.0264x elapsed=0:01:24.94    \nframe=  274 fps=3.2 q=53.0 size=       1KiB time=00:00:02.27 bitrate=   2.0kbits/s speed=0.0266x elapsed=0:01:25.47    \nframe=  278 fps=3.2 q=53.0 size=       1KiB time=00:00:02.30 bitrate=   1.9kbits/s speed=0.0268x elapsed=0:01:25.99    \nframe=  280 fps=3.2 q=54.0 size=       1KiB time=00:00:02.32 bitrate=   1.9kbits/s speed=0.0269x elapsed=0:01:26.51    \nframe=  282 fps=3.2 q=54.0 size=       1KiB time=00:00:02.34 bitrate=   1.9kbits/s speed=0.0269x elapsed=0:01:27.03    \nframe=  283 fps=3.2 q=57.0 size=       1KiB time=00:00:02.35 bitrate=   1.9kbits/s speed=0.0268x elapsed=0:01:27.55    \nframe=  284 fps=3.2 q=54.0 size=       1KiB time=00:00:02.35 bitrate=   1.9kbits/s speed=0.0268x elapsed=0:01:28.06    \nframe=  288 fps=3.3 q=54.0 size=       1KiB time=00:00:02.39 bitrate=   1.9kbits/s speed=0.027x elapsed=0:01:28.58    \nframe=  292 fps=3.3 q=55.0 size=       1KiB time=00:00:02.42 bitrate=   1.8kbits/s speed=0.0272x elapsed=0:01:29.08    \nframe=  296 fps=3.3 q=54.0 size=       1KiB time=00:00:02.45 bitrate=   1.8kbits/s speed=0.0274x elapsed=0:01:29.61    \nframe=  301 fps=3.3 q=57.0 size=       1KiB time=00:00:02.50 bitrate=   1.8kbits/s speed=0.0277x elapsed=0:01:30.12    \nframe=  304 fps=3.4 q=53.0 size=       1KiB time=00:00:02.52 bitrate=   1.8kbits/s speed=0.0279x elapsed=0:01:30.64    \nframe=  306 fps=3.4 q=52.0 size=       1KiB time=00:00:02.54 bitrate=   1.8kbits/s speed=0.0279x elapsed=0:01:31.16    \nframe=  309 fps=3.4 q=58.0 size=       1KiB time=00:00:02.56 bitrate=   1.7kbits/s speed=0.028x elapsed=0:01:31.67    \nframe=  311 fps=3.4 q=54.0 size=       1KiB time=00:00:02.58 bitrate=   1.7kbits/s speed=0.028x elapsed=0:01:32.19    \nframe=  314 fps=3.4 q=53.0 size=       1KiB time=00:00:02.60 bitrate=   1.7kbits/s speed=0.0281x elapsed=0:01:32.70    \nframe=  318 fps=3.4 q=53.0 size=       1KiB time=00:00:02.64 bitrate=   1.7kbits/s speed=0.0283x elapsed=0:01:33.21    \nframe=  321 fps=3.4 q=44.0 size=       1KiB time=00:00:02.66 bitrate=   1.7kbits/s speed=0.0284x elapsed=0:01:33.73    \nframe=  325 fps=3.4 q=58.0 size=       1KiB time=00:00:02.70 bitrate=   1.7kbits/s speed=0.0286x elapsed=0:01:34.25    \nframe=  326 fps=3.4 q=54.0 size=       1KiB time=00:00:02.70 bitrate=   1.7kbits/s speed=0.0286x elapsed=0:01:34.76    \nframe=  327 fps=3.4 q=57.0 size=       1KiB time=00:00:02.71 bitrate=   1.6kbits/s speed=0.0285x elapsed=0:01:35.28    \nframe=  329 fps=3.4 q=47.0 size=       1KiB time=00:00:02.73 bitrate=   1.6kbits/s speed=0.0285x elapsed=0:01:35.79    \nframe=  331 fps=3.4 q=57.0 size=       1KiB time=00:00:02.75 bitrate=   1.6kbits/s speed=0.0286x elapsed=0:01:36.31    \nframe=  332 fps=3.4 q=54.0 size=       1KiB time=00:00:02.75 bitrate=   1.6kbits/s speed=0.0285x elapsed=0:01:36.83    \nframe=  334 fps=3.4 q=53.0 size=       1KiB time=00:00:02.77 bitrate=   1.6kbits/s speed=0.0285x elapsed=0:01:37.34    \nframe=  337 fps=3.4 q=44.0 size=       1KiB time=00:00:02.80 bitrate=   1.6kbits/s speed=0.0286x elapsed=0:01:37.86    \nframe=  339 fps=3.4 q=55.0 size=       1KiB time=00:00:02.81 bitrate=   1.6kbits/s speed=0.0286x elapsed=0:01:38.37    \nframe=  342 fps=3.5 q=53.0 size=       1KiB time=00:00:02.84 bitrate=   1.6kbits/s speed=0.0287x elapsed=0:01:38.89    \nframe=  345 fps=3.5 q=48.0 size=       1KiB time=00:00:02.86 bitrate=   1.6kbits/s speed=0.0288x elapsed=0:01:39.40    \nframe=  346 fps=3.5 q=53.0 size=       1KiB time=00:00:02.87 bitrate=   1.6kbits/s speed=0.0288x elapsed=0:01:39.92    \nframe=  349 fps=3.5 q=57.0 size=       1KiB time=00:00:02.90 bitrate=   1.5kbits/s speed=0.0289x elapsed=0:01:40.43    \nframe=  352 fps=3.5 q=53.0 size=       1KiB time=00:00:02.92 bitrate=   1.5kbits/s speed=0.029x elapsed=0:01:40.95    \nframe=  354 fps=3.5 q=50.0 size=       1KiB time=00:00:02.94 bitrate=   1.5kbits/s speed=0.029x elapsed=0:01:41.47    \nframe=  356 fps=3.5 q=52.0 size=       1KiB time=00:00:02.95 bitrate=   1.5kbits/s speed=0.029x elapsed=0:01:41.98    \nframe=  359 fps=3.5 q=57.0 size=       1KiB time=00:00:02.98 bitrate=   1.5kbits/s speed=0.0291x elapsed=0:01:42.50    \nframe=  362 fps=3.5 q=53.0 size=       1KiB time=00:00:03.00 bitrate=   1.5kbits/s speed=0.0292x elapsed=0:01:43.02    \nframe=  363 fps=3.5 q=56.0 size=       1KiB time=00:00:03.01 bitrate=   1.5kbits/s speed=0.0291x elapsed=0:01:43.54    \nframe=  366 fps=3.5 q=53.0 size=       1KiB time=00:00:03.04 bitrate=   1.5kbits/s speed=0.0292x elapsed=0:01:44.07    \nframe=  369 fps=3.5 q=44.0 size=       1KiB time=00:00:03.06 bitrate=   1.5kbits/s speed=0.0293x elapsed=0:01:44.57    \nframe=  370 fps=3.5 q=48.0 size=       1KiB time=00:00:03.07 bitrate=   1.5kbits/s speed=0.0293x elapsed=0:01:45.09    \nframe=  372 fps=3.5 q=48.0 size=       1KiB time=00:00:03.09 bitrate=   1.4kbits/s speed=0.0293x elapsed=0:01:45.60    \nframe=  373 fps=3.5 q=58.0 size=       1KiB time=00:00:03.10 bitrate=   1.4kbits/s speed=0.0292x elapsed=0:01:46.12    \nframe=  375 fps=3.5 q=54.0 size=       1KiB time=00:00:03.11 bitrate=   1.4kbits/s speed=0.0292x elapsed=0:01:46.64    \nframe=  377 fps=3.5 q=48.0 size=       1KiB time=00:00:03.13 bitrate=   1.4kbits/s speed=0.0292x elapsed=0:01:47.15    \nframe=  379 fps=3.5 q=55.0 size=       1KiB time=00:00:03.15 bitrate=   1.4kbits/s speed=0.0293x elapsed=0:01:47.67    \nframe=  381 fps=3.5 q=57.0 size=       1KiB time=00:00:03.16 bitrate=   1.4kbits/s speed=0.0293x elapsed=0:01:48.19    \nframe=  384 fps=3.5 q=55.0 size=       1KiB time=00:00:03.19 bitrate=   1.4kbits/s speed=0.0294x elapsed=0:01:48.71    \nframe=  387 fps=3.5 q=57.0 size=       1KiB time=00:00:03.21 bitrate=   1.4kbits/s speed=0.0294x elapsed=0:01:49.23    \nframe=  390 fps=3.6 q=55.0 size=       1KiB time=00:00:03.24 bitrate=   1.4kbits/s speed=0.0295x elapsed=0:01:49.74    \nframe=  392 fps=3.6 q=55.0 size=       1KiB time=00:00:03.25 bitrate=   1.4kbits/s speed=0.0295x elapsed=0:01:50.26    \nframe=  394 fps=3.6 q=55.0 size=       1KiB time=00:00:03.27 bitrate=   1.4kbits/s speed=0.0296x elapsed=0:01:50.79    \nframe=  399 fps=3.6 q=58.0 size=       1KiB time=00:00:03.31 bitrate=   1.4kbits/s speed=0.0298x elapsed=0:01:51.29    \nframe=  404 fps=3.6 q=55.0 size=       1KiB time=00:00:03.35 bitrate=   1.3kbits/s speed=0.03x elapsed=0:01:51.81    \nframe=  405 fps=3.6 q=58.0 size=       1KiB time=00:00:03.36 bitrate=   1.3kbits/s speed=0.03x elapsed=0:01:52.32    \nframe=  409 fps=3.6 q=48.0 size=       1KiB time=00:00:03.40 bitrate=   1.3kbits/s speed=0.0301x elapsed=0:01:52.84    \nframe=  410 fps=3.6 q=54.0 size=       1KiB time=00:00:03.40 bitrate=   1.3kbits/s speed=0.0301x elapsed=0:01:53.36    \nframe=  415 fps=3.6 q=56.0 size=       1KiB time=00:00:03.45 bitrate=   1.3kbits/s speed=0.0303x elapsed=0:01:53.87    \nframe=  418 fps=3.7 q=54.0 size=       1KiB time=00:00:03.47 bitrate=   1.3kbits/s speed=0.0304x elapsed=0:01:54.39    \nframe=  420 fps=3.7 q=54.0 size=       1KiB time=00:00:03.49 bitrate=   1.3kbits/s speed=0.0304x elapsed=0:01:54.90    \nframe=  421 fps=3.6 q=58.0 size=       1KiB time=00:00:03.50 bitrate=   1.3kbits/s speed=0.0303x elapsed=0:01:55.42    \nframe=  423 fps=3.6 q=55.0 size=       1KiB time=00:00:03.51 bitrate=   1.3kbits/s speed=0.0303x elapsed=0:01:55.93    \nframe=  424 fps=3.6 q=54.0 size=       1KiB time=00:00:03.52 bitrate=   1.3kbits/s speed=0.0303x elapsed=0:01:56.45    \nframe=  429 fps=3.7 q=57.0 size=       1KiB time=00:00:03.56 bitrate=   1.3kbits/s speed=0.0305x elapsed=0:01:56.96    \nframe=  432 fps=3.7 q=54.0 size=       1KiB time=00:00:03.59 bitrate=   1.2kbits/s speed=0.0306x elapsed=0:01:57.48    \nframe=  436 fps=3.7 q=55.0 size=       1KiB time=00:00:03.62 bitrate=   1.2kbits/s speed=0.0307x elapsed=0:01:58.00    \nframe=  438 fps=3.7 q=55.0 size=       1KiB time=00:00:03.64 bitrate=   1.2kbits/s speed=0.0307x elapsed=0:01:58.51    \nframe=  440 fps=3.7 q=55.0 size=       1KiB time=00:00:03.65 bitrate=   1.2kbits/s speed=0.0307x elapsed=0:01:59.03    \nframe=  442 fps=3.7 q=55.0 size=       1KiB time=00:00:03.67 bitrate=   1.2kbits/s speed=0.0307x elapsed=0:01:59.54    \nframe=  448 fps=3.7 q=55.0 size=       1KiB time=00:00:03.72 bitrate=   1.2kbits/s speed=0.031x elapsed=0:02:00.06    \nframe=  450 fps=3.7 q=56.0 size=       1KiB time=00:00:03.74 bitrate=   1.2kbits/s speed=0.031x elapsed=0:02:00.57    \nframe=  454 fps=3.7 q=56.0 size=       1KiB time=00:00:03.77 bitrate=   1.2kbits/s speed=0.0312x elapsed=0:02:01.09    \nframe=  455 fps=3.7 q=58.0 size=       1KiB time=00:00:03.78 bitrate=   1.2kbits/s speed=0.0311x elapsed=0:02:01.61    \nframe=  458 fps=3.8 q=55.0 size=       1KiB time=00:00:03.80 bitrate=   1.2kbits/s speed=0.0312x elapsed=0:02:02.12    \nframe=  460 fps=3.8 q=55.0 size=       1KiB time=00:00:03.82 bitrate=   1.2kbits/s speed=0.0312x elapsed=0:02:02.63    \nframe=  462 fps=3.8 q=55.0 size=       1KiB time=00:00:03.84 bitrate=   1.2kbits/s speed=0.0312x elapsed=0:02:03.15    \nframe=  464 fps=3.8 q=55.0 size=       1KiB time=00:00:03.85 bitrate=   1.2kbits/s speed=0.0312x elapsed=0:02:03.66    \nframe=  467 fps=3.8 q=56.0 size=       1KiB time=00:00:03.88 bitrate=   1.2kbits/s speed=0.0313x elapsed=0:02:04.18    \nframe=  469 fps=3.8 q=58.0 size=       1KiB time=00:00:03.90 bitrate=   1.1kbits/s speed=0.0313x elapsed=0:02:04.70    \nframe=  471 fps=3.8 q=56.0 size=       1KiB time=00:00:03.91 bitrate=   1.1kbits/s speed=0.0313x elapsed=0:02:05.21    \nframe=  473 fps=3.8 q=50.0 size=       1KiB time=00:00:03.93 bitrate=   1.1kbits/s speed=0.0313x elapsed=0:02:05.72    \nframe=  476 fps=3.8 q=52.0 size=       1KiB time=00:00:03.95 bitrate=   1.1kbits/s speed=0.0314x elapsed=0:02:06.25    \nframe=  481 fps=3.8 q=46.0 size=       1KiB time=00:00:04.00 bitrate=   1.1kbits/s speed=0.0316x elapsed=0:02:06.76    \nframe=  483 fps=3.8 q=56.0 size=       1KiB time=00:00:04.01 bitrate=   1.1kbits/s speed=0.0316x elapsed=0:02:07.28    \nframe=  485 fps=3.8 q=58.0 size=       1KiB time=00:00:04.03 bitrate=   1.1kbits/s speed=0.0316x elapsed=0:02:07.79    \nframe=  487 fps=3.8 q=56.0 size=       1KiB time=00:00:04.05 bitrate=   1.1kbits/s speed=0.0316x elapsed=0:02:08.31    \nframe=  489 fps=3.8 q=50.0 size=       1KiB time=00:00:04.06 bitrate=   1.1kbits/s speed=0.0316x elapsed=0:02:08.82    \nframe=  491 fps=3.8 q=56.0 size=       1KiB time=00:00:04.08 bitrate=   1.1kbits/s speed=0.0316x elapsed=0:02:09.34    \nframe=  494 fps=3.8 q=55.0 size=       1KiB time=00:00:04.10 bitrate=   1.1kbits/s speed=0.0316x elapsed=0:02:09.86    \nframe=  497 fps=3.8 q=46.0 size=       1KiB time=00:00:04.13 bitrate=   1.1kbits/s speed=0.0317x elapsed=0:02:10.37    \nframe=  499 fps=3.8 q=56.0 size=       1KiB time=00:00:04.15 bitrate=   1.1kbits/s speed=0.0317x elapsed=0:02:10.89    \nframe=  505 fps=3.8 q=50.0 size=       1KiB time=00:00:04.20 bitrate=   1.1kbits/s speed=0.032x elapsed=0:02:11.40    \nframe=  507 fps=3.8 q=56.0 size=       1KiB time=00:00:04.21 bitrate=   1.1kbits/s speed=0.032x elapsed=0:02:11.92    \nframe=  509 fps=3.8 q=57.0 size=       1KiB time=00:00:04.23 bitrate=   1.1kbits/s speed=0.032x elapsed=0:02:12.43    \nframe=  509 fps=3.8 q=57.0 size=       1KiB time=00:00:04.23 bitrate=   1.1kbits/s speed=0.0318x elapsed=0:02:12.96    \nframe=  511 fps=3.8 q=55.0 size=       1KiB time=00:00:04.25 bitrate=   1.1kbits/s speed=0.0318x elapsed=0:02:13.46    \nframe=  513 fps=3.8 q=46.0 size=       1KiB time=00:00:04.26 bitrate=   1.0kbits/s speed=0.0318x elapsed=0:02:13.99    \nframe=  517 fps=3.8 q=58.0 size=       1KiB time=00:00:04.30 bitrate=   1.0kbits/s speed=0.032x elapsed=0:02:14.50    \nframe=  519 fps=3.8 q=56.0 size=       1KiB time=00:00:04.31 bitrate=   1.0kbits/s speed=0.032x elapsed=0:02:15.02    \nframe=  521 fps=3.8 q=49.0 size=       1KiB time=00:00:04.33 bitrate=   1.0kbits/s speed=0.032x elapsed=0:02:15.52    \nframe=  523 fps=3.8 q=56.0 size=       1KiB time=00:00:04.35 bitrate=   1.0kbits/s speed=0.032x elapsed=0:02:16.04    \nframe=  525 fps=3.8 q=57.0 size=       1KiB time=00:00:04.36 bitrate=   1.0kbits/s speed=0.032x elapsed=0:02:16.56    \nframe=  525 fps=3.8 q=57.0 size=       1KiB time=00:00:04.36 bitrate=   1.0kbits/s speed=0.0319x elapsed=0:02:17.08    \nframe=  531 fps=3.9 q=56.0 size=       1KiB time=00:00:04.41 bitrate=   1.0kbits/s speed=0.0321x elapsed=0:02:17.58    \nframe=  535 fps=3.9 q=56.0 size=       1KiB time=00:00:04.45 bitrate=   1.0kbits/s speed=0.0322x elapsed=0:02:18.11    \nframe=  537 fps=3.9 q=49.0 size=       1KiB time=00:00:04.46 bitrate=   1.0kbits/s speed=0.0322x elapsed=0:02:18.61    \nframe=  541 fps=3.9 q=57.0 size=       1KiB time=00:00:04.50 bitrate=   1.0kbits/s speed=0.0323x elapsed=0:02:19.13    \nframe=  543 fps=3.9 q=54.0 size=       1KiB time=00:00:04.51 bitrate=   1.0kbits/s speed=0.0323x elapsed=0:02:19.66    \nframe=  545 fps=3.9 q=45.0 size=       1KiB time=00:00:04.53 bitrate=   1.0kbits/s speed=0.0323x elapsed=0:02:20.17    \nframe=  549 fps=3.9 q=57.0 size=       1KiB time=00:00:04.56 bitrate=   1.0kbits/s speed=0.0325x elapsed=0:02:20.69    \nframe=  553 fps=3.9 q=50.0 size=       1KiB time=00:00:04.60 bitrate=   1.0kbits/s speed=0.0326x elapsed=0:02:21.19    \nframe=  553 fps=3.9 q=50.0 size=       1KiB time=00:00:04.60 bitrate=   1.0kbits/s speed=0.0325x elapsed=0:02:21.71    \nframe=  557 fps=3.9 q=57.0 size=       1KiB time=00:00:04.63 bitrate=   1.0kbits/s speed=0.0326x elapsed=0:02:22.24    \nframe=  557 fps=3.9 q=57.0 size=       1KiB time=00:00:04.63 bitrate=   1.0kbits/s speed=0.0325x elapsed=0:02:22.74    \nframe=  559 fps=3.9 q=55.0 size=       1KiB time=00:00:04.65 bitrate=   1.0kbits/s speed=0.0325x elapsed=0:02:23.27    \nframe=  565 fps=3.9 q=57.0 size=       1KiB time=00:00:04.70 bitrate=   1.0kbits/s speed=0.0327x elapsed=0:02:23.77    \nframe=  569 fps=3.9 q=50.0 size=       1KiB time=00:00:04.73 bitrate=   0.9kbits/s speed=0.0328x elapsed=0:02:24.30    \nframe=  569 fps=3.9 q=50.0 size=       1KiB time=00:00:04.73 bitrate=   0.9kbits/s speed=0.0327x elapsed=0:02:24.80    \nframe=  569 fps=3.9 q=50.0 size=       1KiB time=00:00:04.73 bitrate=   0.9kbits/s speed=0.0326x elapsed=0:02:25.32    \nframe=  573 fps=3.9 q=57.0 size=       1KiB time=00:00:04.76 bitrate=   0.9kbits/s speed=0.0327x elapsed=0:02:25.85    \nframe=  577 fps=3.9 q=46.0 size=       1KiB time=00:00:04.80 bitrate=   0.9kbits/s speed=0.0328x elapsed=0:02:26.35    \nframe=  577 fps=3.9 q=46.0 size=       1KiB time=00:00:04.80 bitrate=   0.9kbits/s speed=0.0327x elapsed=0:02:26.87    \nframe=  581 fps=3.9 q=59.0 size=       1KiB time=00:00:04.83 bitrate=   0.9kbits/s speed=0.0328x elapsed=0:02:27.39    \nframe=  583 fps=3.9 q=56.0 size=       1KiB time=00:00:04.85 bitrate=   0.9kbits/s speed=0.0328x elapsed=0:02:27.90    \nframe=  585 fps=3.9 q=54.0 size=       1KiB time=00:00:04.86 bitrate=   0.9kbits/s speed=0.0328x elapsed=0:02:28.42    \nframe=  585 fps=3.9 q=54.0 size=       1KiB time=00:00:04.86 bitrate=   0.9kbits/s speed=0.0327x elapsed=0:02:28.94    \nframe=  589 fps=3.9 q=59.0 size=       1KiB time=00:00:04.90 bitrate=   0.9kbits/s speed=0.0328x elapsed=0:02:29.45    \n[out#0/matroska @ 000001c5b5019100] video:526KiB audio:0KiB subtitle:0KiB other streams:0KiB global headers:0KiB muxing overhead: 0.612850%\nframe=  600 fps=4.0 q=63.0 Lsize=     530KiB time=00:00:04.99 bitrate= 869.1kbits/s speed=0.0333x elapsed=0:02:29.89    \n",
  "seconds": 150.9360315799713,
  "probe_out": {}
}